<svg width="24" height="24" viewBox="0 0 24 24" fill="none" xmlns="http://www.w3.org/2000/svg">
<mask id="mask0" mask-type="alpha" maskUnits="userSpaceOnUse" x="4" y="3" width="16" height="17">
<path fill-rule="evenodd" clip-rule="evenodd" d="M4.00012 3.99991H20V19.9998H4.00012V3.99991Z" fill="white"/>
</mask>
<g mask="url(#mask0)">
<path fill-rule="evenodd" clip-rule="evenodd" d="M19.8149 18.7907L12.8703 11.9907L19.6709 5.0461C19.9079 4.80302 19.9048 4.41348 19.6611 4.17533C19.4186 3.93779 19.0297 3.9421 18.7909 4.18456L11.9909 11.1298L5.0457 4.32918C4.80323 4.09102 4.4137 4.09594 4.17554 4.33841C3.938 4.58148 3.94231 4.97102 4.18477 5.20856L11.13 12.0086L4.32939 18.9544C4.09185 19.1969 4.09616 19.5864 4.33862 19.8246C4.45862 19.9415 4.6137 19.9999 4.76939 19.9999C4.92877 19.9999 5.08816 19.9378 5.20877 19.8147L12.0088 12.8701L18.9546 19.6707C19.074 19.7876 19.2291 19.8461 19.3848 19.8461C19.5448 19.8461 19.7035 19.7839 19.8248 19.6609C20.0617 19.4184 20.0586 19.0289 19.8149 18.7907Z" fill="#282A35"/>
</g>
</svg>
