<svg width="24" height="24" viewBox="0 0 24 24" fill="none" xmlns="http://www.w3.org/2000/svg">
<g id="01 Icon / System / Share">
<path id="Oval 3" fill-rule="evenodd" clip-rule="evenodd" d="M3 12C3 16.9706 7.02944 21 12 21C16.9706 21 21 16.9706 21 12C21 7.02944 16.9706 3 12 3C7.02944 3 3 7.02944 3 12ZM19.9 12C19.9 16.363 16.363 19.9 12 19.9C7.63695 19.9 4.1 16.363 4.1 12C4.1 7.63695 7.63695 4.1 12 4.1C16.363 4.1 19.9 7.63695 19.9 12Z" fill="#816BFF"/>
<path id="Oval" fill-rule="evenodd" clip-rule="evenodd" d="M12 16C14.2091 16 16 14.2091 16 12C16 9.79086 14.2091 8 12 8C9.79086 8 8 9.79086 8 12C8 14.2091 9.79086 16 12 16Z" fill="#816BFF"/>
</g>
</svg>
